<svg width="2807" height="661" viewBox="0 0 2807 661" fill="none" xmlns="http://www.w3.org/2000/svg">
<path d="M0 600.517L346.711 -1.78968e-05L520.064 300.259L346.711 600.517H0Z" fill="#E72566"/>
<path d="M0 0.000470384L346.711 600.518L520.064 300.258L346.711 0.000470384H0Z" fill="#E72566"/>
<path d="M129.111 376.892L173.355 300.257L346.711 600.517L129.111 376.892Z" fill="#8B001D"/>
<path d="M704.62 220.534V540.25H778.047V182.162H742.992C721.799 182.162 704.62 199.341 704.62 220.534Z" fill="#333535"/>
<path d="M704.62 91.9273V137.782H746.387C763.873 137.782 778.047 123.606 778.047 106.121V60.2673H736.28C718.795 60.2673 704.62 74.442 704.62 91.9273Z" fill="#E72566"/>
<path d="M1152.87 313.077C1152.86 298.714 1151.2 284.781 1147.94 271.674C1136.29 224.84 1107.49 194.542 1062.33 181.624C1038.74 174.876 1013.1 173.82 985.587 178.484C966.108 181.789 948.712 188.542 933.552 198.656V182.852H896.312C876.094 182.852 859.7 199.242 859.7 219.462V501.664C859.7 522.961 876.966 540.225 898.263 540.225H933.556L933.562 470.068C933.566 427.965 933.572 385.86 933.54 343.756C933.526 324.706 935.654 309.678 940.238 296.465C947.202 276.396 958.815 263.128 975.743 255.906C994.988 247.697 1015.55 246.248 1036.82 251.581C1054.21 255.941 1066.04 266.061 1073 282.522C1077.02 292.052 1078.89 302.913 1078.89 316.702L1078.89 501.689C1078.89 522.986 1096.15 540.25 1117.45 540.25H1152.91L1152.92 467.07C1152.92 415.74 1152.92 364.406 1152.87 313.077Z" fill="#333535"/>
<path d="M1420.54 452.862L1403.36 457.89C1401.42 458.46 1399.49 459.046 1397.57 459.629C1393.67 460.814 1389.98 461.937 1386.37 462.842C1374.99 465.704 1364.62 467.096 1354.67 467.096C1348.25 467.096 1341.91 466.486 1335.85 465.289C1314.14 461 1301.6 448.458 1297.52 426.95C1296.15 419.78 1295.45 411.809 1295.44 403.264C1295.35 356.512 1295.33 299.526 1295.32 242H1368.75C1393.67 242 1413.87 221.797 1413.87 196.878V167.668H1295.33C1295.33 161.257 1295.33 154.878 1295.33 148.576L1295.34 65.4089H1266.12C1241.2 65.4089 1221 85.6116 1221 110.53L1221 161.165C1221 242.129 1221.01 335.13 1220.98 404.218C1220.98 427.63 1224.61 447.668 1232.11 465.472C1246.8 500.378 1273.37 523.588 1311.1 534.454C1324.63 538.354 1338.8 540.25 1354.41 540.25H1354.41C1360.79 540.25 1367.26 539.938 1374.2 539.297C1379.66 538.792 1388.23 536.801 1397.39 534.321C1420.84 527.968 1434.62 503.7 1428.13 480.288L1420.54 452.862Z" fill="#333535"/>
<path d="M1642.03 241.712L1642.3 241.711C1704.86 241.711 1754.1 291.134 1754.41 354.226C1754.55 384.762 1743.06 413.246 1722.03 434.427C1701.05 455.576 1672.72 467.272 1642.27 467.363H1641.93C1611.8 467.36 1583.73 455.75 1562.87 434.672C1541.96 413.536 1530.45 385.055 1530.45 354.475C1530.46 291.384 1579.47 241.856 1642.03 241.712ZM1642.13 168.84C1538.07 168.84 1456.46 250.303 1456.32 354.295C1456.26 404.44 1475.41 451.263 1510.24 486.138C1545.09 521.032 1591.92 540.251 1642.12 540.251H1642.2C1746.29 540.207 1827.79 458.599 1827.76 354.462C1827.72 250.396 1746.2 168.862 1642.13 168.84Z" fill="#333535"/>
<path d="M2047.63 239.824H2047.87C2072.6 239.824 2095.66 249.283 2112.82 266.461C2130.17 283.837 2139.71 307.302 2139.68 332.53C2139.6 384.408 2099.21 425.105 2047.56 425.185C2022.82 425.185 1999.72 415.686 1982.51 398.44C1965.13 381.02 1955.59 357.571 1955.64 332.411C1955.76 280.619 1996.16 239.948 2047.63 239.824ZM1937.67 454.518C1965.85 479.694 1999.79 493.561 2038.55 495.733C2041.78 495.91 2045.03 496.003 2048.22 496.003C2061 496.003 2073.59 494.497 2085.9 491.615C2105.6 486.533 2201.41 455.962 2211.7 339.87V334.686C2211.71 334.475 2211.7 334.258 2211.7 334.046L2210.69 314.782C2208.16 290.662 2200.79 268.184 2188.64 247.934C2187.9 246.688 2187.15 245.457 2186.38 244.242C2185.77 243.291 2185.15 242.35 2184.53 241.414C2183.83 240.364 2183.13 239.322 2182.41 238.294C2181.7 237.275 2180.96 236.262 2180.22 235.244C2179.49 234.251 2178.77 233.262 2178.05 232.327C2177.6 231.734 2177.13 231.142 2176.66 230.553L2176.27 230.054C2147.77 194.254 2111.45 180.092 2092.33 174.838L2090.98 174.522C2088.63 174.07 2086.28 173.567 2083.94 173.063C2078.08 171.806 2072.03 170.508 2065.53 169.83C2035.29 166.671 2006.6 171.089 1980.55 182.913C1929.91 205.905 1898.39 245.307 1886.85 300.026C1882.02 322.927 1882.44 346.728 1888.1 370.769C1895.91 403.929 1912.59 432.106 1937.67 454.518Z" fill="#333535"/>
<path d="M2156.75 489.284C2146.61 496.394 2139.97 507.315 2137.17 519.382C2133.31 536.086 2125 551.284 2112.82 563.484C2095.66 580.663 2072.59 590.126 2047.63 590.128C2024.64 590.072 2003.2 581.883 1986.76 567.462C1985.55 566.403 1983.87 564.502 1981.93 562.106C1968.51 545.576 1944.47 542.468 1927.34 555.108L1901.35 574.287L1910.41 588.219C1926.91 613.611 1950.51 633.4 1980.54 647.038C2000.92 656.288 2023.1 660.784 2048.35 660.784C2053.68 660.784 2059.27 660.58 2064.95 660.172C2075.16 659.442 2088.31 655.884 2097.55 653.03L2097.86 652.935C2137.04 641.248 2162.94 615.186 2169.95 607.478L2170.13 607.268C2193.95 580.208 2207.64 548.514 2210.93 513.035H2211.7V423.239C2197.87 454.075 2176.94 475.127 2156.75 489.284Z" fill="#E72566"/>
<path d="M2286.54 100.851V540.251H2320.31C2342.38 540.251 2360.26 522.365 2360.26 500.303V60.9041H2326.49C2304.43 60.9041 2286.54 78.7894 2286.54 100.851Z" fill="#333535"/>
<path d="M2620.81 241.712L2621.09 241.711C2683.65 241.711 2732.89 291.134 2733.19 354.226C2733.33 384.762 2721.84 413.246 2700.82 434.427C2679.83 455.576 2651.5 467.272 2621.05 467.363H2620.71C2590.59 467.36 2562.51 455.75 2541.66 434.672C2520.75 413.536 2509.23 385.055 2509.24 354.475C2509.24 291.384 2558.25 241.856 2620.81 241.712ZM2620.91 168.84C2516.85 168.84 2435.24 250.303 2435.11 354.295C2435.04 404.44 2454.19 451.263 2489.02 486.138C2523.87 521.032 2570.71 540.251 2620.9 540.251H2620.98C2725.07 540.207 2806.58 458.599 2806.54 354.462C2806.5 250.396 2724.98 168.862 2620.91 168.84Z" fill="#333535"/>
</svg>
